<svg width="24" height="24" viewBox="0 0 24 24" fill="none" xmlns="http://www.w3.org/2000/svg">
<path d="M19.5 12C19.5 16.1421 16.1421 19.5 12 19.5C7.85786 19.5 4.5 16.1421 4.5 12C4.5 7.85786 7.85786 4.5 12 4.5C16.1421 4.5 19.5 7.85786 19.5 12ZM12 19.0455C15.8911 19.0455 19.0455 15.8911 19.0455 12C19.0455 8.1089 15.8911 4.95455 12 4.95455C8.1089 4.95455 4.95455 8.1089 4.95455 12C4.95455 15.8911 8.1089 19.0455 12 19.0455Z" stroke="#FF6868"/>
<path d="M12.6878 8.57146C12.6878 8.95017 12.3808 9.25717 12.0021 9.25717C11.6234 9.25717 11.3164 8.95017 11.3164 8.57146C11.3164 8.19275 11.6234 7.88574 12.0021 7.88574C12.3808 7.88574 12.6878 8.19275 12.6878 8.57146Z" fill="#FF6868"/>
<path d="M11.8164 15.5004V10.7861H12.1878V15.5004H11.8164Z" stroke="#FF6868"/>
</svg>
