<svg width="178" height="24" viewBox="0 0 178 24" fill="none" xmlns="http://www.w3.org/2000/svg">
<path d="M177.968 12.0916V20.4886C177.968 21.0076 177.776 21.374 177.361 21.6489C175.32 23.0229 172.896 24 169.961 24C162.976 24 159.18 19.2366 159.18 12C159.18 5.0687 163.039 0 169.451 0C173.693 0 177.744 2.25954 177.999 7.0229H174.395C173.98 3.93893 171.747 2.9313 169.419 2.9313C164.698 2.9313 162.912 7.0229 162.912 12C162.912 17.0687 164.985 21.0687 170.344 21.0687C172.13 21.0687 173.47 20.458 174.267 19.9695C174.363 19.8779 174.459 19.9084 174.459 19.6641V14.1374H169.291V11.2672H177.106C177.776 11.2672 177.968 11.4504 177.968 12.0916Z" fill="#111111"/>
<path d="M155.36 0.458008V22.6565C155.36 23.2977 155.201 23.4809 154.531 23.4809H151.979C151.373 23.4809 151.118 23.2366 150.958 22.7786L141.74 7.48091L140.687 5.22137L140.783 7.57251V23.542H137.242V1.28244C137.242 0.641214 137.402 0.458008 138.072 0.458008H140.528C141.134 0.458008 141.389 0.702283 141.548 1.1603L150.863 16.458L151.915 18.7176L151.819 16.3664V0.458008H155.36Z" fill="#111111"/>
<path d="M120.59 14.7176H127.926L124.736 6.19847L124.258 4.73282L123.78 6.19847L120.59 14.7176ZM126.268 1.09923L135.039 23.542H131.276L129.011 17.6183H119.505L117.241 23.542H113.477L122.248 1.09923C122.376 0.671749 122.631 0.458008 123.046 0.458008H125.438C125.853 0.458008 126.14 0.671749 126.268 1.09923Z" fill="#111111"/>
<path d="M101.728 11.2366H105.81C108.968 11.2366 110.691 10.229 110.691 7.32824C110.691 4.42747 108.968 3.35877 105.81 3.35877H101.728V11.2366ZM101.759 14.1374V23.542H98.2188V1.28244C98.2188 0.641214 98.4101 0.458008 99.08 0.458008H106.129C110.595 0.458008 114.327 2.74808 114.327 7.32824C114.327 11.9084 110.659 14.1374 106.448 14.1374H101.759Z" fill="#111111"/>
<path d="M75.4298 11.1754L87.2001 23.7861H82.6706L73.2288 13.5571V23.7861H69.8477V0.702148H73.2288V9.09909L81.6498 0.702148H86.2431L75.4298 11.1754Z" fill="#111111"/>
<path d="M57.8567 20.3359C60.5361 18.7786 61.6206 15.6947 61.6206 12C61.6206 7.26718 59.6111 2.9313 54.7307 2.9313C49.8184 2.9313 47.8727 7.26718 47.8727 12C47.8727 16.7634 49.8184 21.0687 54.7307 21.0687C55.9428 21.0687 56.9954 20.8244 57.8567 20.3359ZM62.5776 20.6718C60.7594 22.7481 58.0481 24 54.6988 24C47.8727 24 44.1406 19.084 44.1406 12C44.1406 4.94656 47.8727 0 54.6988 0C61.4611 0 65.3846 4.94656 65.3846 12C65.3846 15.5725 64.3957 18.5649 62.5776 20.6718Z" fill="#111111"/>
<path d="M33.6848 20.3359C36.3642 18.7786 37.4488 15.6947 37.4488 12C37.4488 7.26718 35.4392 2.9313 30.5588 2.9313C25.6466 2.9313 23.7008 7.26718 23.7008 12C23.7008 16.7634 25.6466 21.0687 30.5588 21.0687C31.7709 21.0687 32.8236 20.8244 33.6848 20.3359ZM38.4057 20.6718C36.5875 22.7481 33.8762 24 30.5269 24C23.7008 24 19.9688 19.084 19.9688 12C19.9688 4.94656 23.7008 0 30.5269 0C37.2893 0 41.2127 4.94656 41.2127 12C41.2127 15.5725 40.2239 18.5649 38.4057 20.6718Z" fill="#111111"/>
<path d="M3.54066 20.6414H7.59168C11.1323 20.733 12.791 19.9392 12.791 16.8552C12.791 13.4964 10.4306 13.0384 6.73044 13.0384H3.54066V20.6414ZM3.54066 10.1987H7.65547C9.85642 10.1987 11.866 9.4048 11.866 6.71778C11.866 3.84755 9.85642 3.4506 7.43219 3.359H3.54066V10.1987ZM9.21847 23.5422H0.861241C0.191387 23.5422 0 23.359 0 22.7178V1.3132C0 0.671977 0.191387 0.48877 0.861241 0.48877H8.64431C12.185 0.48877 15.5661 2.74831 15.5661 6.50404C15.5661 8.79411 14.0669 10.9621 11.8979 11.5422C14.7049 12.2445 16.4593 14.3819 16.4593 17.0995C16.4593 20.1529 14.4178 23.5422 9.21847 23.5422Z" fill="#111111"/>
</svg>
