<svg width="96" height="42" viewBox="0 0 96 42" fill="none" xmlns="http://www.w3.org/2000/svg">
<path d="M27.9975 37.2016C28.4072 36.9259 29.2492 36.0898 29.5103 35.8009L45.4855 19.312C45.8367 18.975 46.3995 18.9706 46.7507 19.3077L47.8269 20.3319C48.0205 20.5158 48.07 20.8397 47.8809 21.0279C44.657 24.162 31.4644 39.2195 28.5513 41.0973C27.0654 42.0559 25.8767 42.2792 24.661 41.6314C22.86 40.6727 21.4957 39.6747 20.9149 39.2589C16.822 36.3043 2.85047 26.2017 0.53164 16.3706C-0.184272 13.3284 -1.38646 5.48009 6.27695 1.62816C14.3591 -2.43388 21.1355 5.74272 21.1355 5.74272C21.1355 5.74272 25.5751 -1.50592 33.8913 0.284357C41.8969 2.00897 44.8011 10.1374 42.793 14.3264C41.1675 17.7144 28.3171 29.9399 25.2284 33.8881C24.7601 34.4878 24.1342 35.0656 24.3774 36.0767C24.5665 36.8646 25.1113 37.5562 26.2369 37.67C26.8583 37.7313 27.4887 37.5518 28.002 37.206L27.9975 37.2016Z" fill="#55C95D"/>
<path d="M29.3895 11.087C30.5151 11.052 36.0713 11.853 39.2322 16.878C39.2907 16.9743 39.3807 17.0487 39.4843 17.0881C40.1732 17.3376 42.2219 17.8629 42.6406 18.966C42.7577 19.2811 42.5866 19.5875 42.2804 19.6882L40.9341 20.139C40.4839 20.2922 40.0471 20.6249 39.8085 20.9051L39.6689 21.0758C39.4348 21.3647 39.2186 21.6711 39.0611 22.0037C38.971 22.192 38.9035 22.3889 38.8719 22.6122L38.6873 24.0129C38.6468 24.3149 38.3857 24.5294 38.0525 24.5031C36.5486 24.3762 35.8282 22.6822 35.4545 22.0475C35.3869 21.9337 35.2744 21.8549 35.1483 21.8199C29.2544 20.231 27.4038 15.88 27.0932 13.7527C27.0256 13.2887 27.0211 12.4921 27.5029 11.9012C27.9352 11.3715 28.615 11.1176 29.376 11.0914L29.3895 11.087Z" fill="#F5F34B"/>
<path d="M30.8828 15.6752C31.6238 15.6752 32.2246 15.0912 32.2246 14.3708C32.2246 13.6504 31.6238 13.0664 30.8828 13.0664C30.1417 13.0664 29.541 13.6504 29.541 14.3708C29.541 15.0912 30.1417 15.6752 30.8828 15.6752Z" fill="#55C95D"/>
<path d="M93.2372 29.4885C92.8122 30.0681 92.2927 30.5269 91.6788 30.8891C90.3329 31.6378 88.4676 32 86.2953 32C84.123 32 82.2813 31.6378 80.9591 30.8891C79.6368 30.1405 78.8576 29.0296 78.8576 27.5565C78.8576 26.1076 79.6604 25.0209 81.0063 24.2481C82.3522 23.4995 84.2175 23.0889 86.3189 23.0889C88.4912 23.0889 90.3329 23.4995 91.6788 24.2481C93.0011 24.9967 93.8039 26.1076 93.8039 27.5565C93.8039 28.3052 93.615 28.933 93.2372 29.4885ZM89.8371 18.6454V20.9155C87.0745 21.3019 83.0605 21.3985 78.7868 21.3985H76.4492V19.1284H78.7632L78.716 13.1394H76.9451V10.8694H88.7273V13.1394H86.8148L86.7912 18.9594C87.287 18.9352 87.8537 18.8869 88.3496 18.8145C88.8926 18.7903 89.3649 18.7179 89.8371 18.6454ZM93.2844 16.9791V23.1855H90.5927V10H93.2844V14.685H95.9998V16.9791H93.2844ZM89.6482 29.247C90.4982 28.8364 90.9232 28.2569 90.9232 27.5082C90.9232 25.9627 89.176 25.2382 86.3189 25.2382C83.58 25.2382 81.7146 26.0351 81.7146 27.5082C81.7146 29.0296 83.6036 29.8749 86.3189 29.8749C87.6412 29.8749 88.751 29.6575 89.6482 29.247ZM81.3132 19.1043H83.1314C83.4383 19.1043 83.7925 19.0801 84.1703 19.0801L84.2175 13.1394H81.266L81.3132 19.1043Z" fill="black"/>
<path d="M60.9821 16.5444H70.4504V14.4675H60.9821V16.5444ZM73.1185 10.1689V18.0899C73.1185 18.597 72.9297 18.7661 72.4574 18.7661H58.9751C58.4792 18.7661 58.3376 18.597 58.3376 18.0899V10.1689H60.9821V12.3424H70.4504V10.1689H73.1185ZM73.0477 25.3347V31.7343H70.3087V26.9527H58.1723V24.6585H64.2877V22.63H56V20.3358H75.4797V22.63H67.0503V24.6585H72.3866C72.8352 24.6585 73.0477 24.8759 73.0477 25.3347Z" fill="black"/>
</svg>
