<svg width="16" height="12" viewBox="0 0 16 12" fill="none" xmlns="http://www.w3.org/2000/svg">
<path fill-rule="evenodd" clip-rule="evenodd" d="M16 0.545455C16 0.846701 15.7558 1.09091 15.4545 1.09091H0.545455C0.244208 1.09091 0 0.846701 0 0.545455C0 0.244208 0.244209 0 0.545455 0H15.4545C15.7558 0 16 0.244208 16 0.545455ZM16 6C16 6.30125 15.7558 6.54545 15.4545 6.54545H0.545455C0.244208 6.54545 0 6.30125 0 6C0 5.69875 0.244209 5.45455 0.545455 5.45455H15.4545C15.7558 5.45455 16 5.69875 16 6ZM16 11.4545C16 11.7558 15.7558 12 15.4545 12H0.545454C0.244208 12 0 11.7558 0 11.4545C0 11.1533 0.244208 10.9091 0.545454 10.9091H15.4545C15.7558 10.9091 16 11.1533 16 11.4545Z" fill="#0A0A0A"/>
</svg>
